<?xml version="1.0" standalone="no"?>
<!DOCTYPE svg PUBLIC "-//W3C//DTD SVG 20010904//EN"
 "http://www.w3.org/TR/2001/REC-SVG-20010904/DTD/svg10.dtd">
<svg version="1.0" xmlns="http://www.w3.org/2000/svg"
 width="1464.000000pt" height="542.000000pt" viewBox="0 0 1464.000000 542.000000"
 preserveAspectRatio="xMidYMid meet">

<g transform="translate(0.000000,542.000000) scale(0.100000,-0.100000)"
fill="#000000" stroke="none">
<path d="M12009 3309 c-371 -30 -658 -288 -756 -677 -27 -106 -24 -381 4 -489
87 -327 320 -560 649 -649 103 -28 348 -26 460 3 197 52 365 163 496 327 l39
49 -153 102 -152 101 -81 -81 c-122 -123 -220 -165 -385 -165 -139 0 -230 32
-327 115 -44 37 -126 152 -118 164 2 4 281 122 619 262 l614 253 -15 41 c-173
453 -484 677 -894 644z m232 -369 c76 -24 153 -80 186 -136 l24 -41 -413 -172
c-227 -94 -416 -171 -420 -171 -11 0 2 110 20 175 46 163 179 299 346 351 64
20 184 17 257 -6z"/>
<path d="M5271 3295 c-215 -49 -407 -163 -531 -318 -65 -82 -132 -212 -166
-323 -25 -81 -28 -103 -28 -259 -1 -149 2 -180 22 -250 118 -412 470 -675 901
-675 437 1 788 275 897 700 28 110 26 354 -5 465 -85 312 -315 547 -628 641
-75 23 -111 27 -243 30 -110 3 -174 -1 -219 -11z m334 -362 c178 -53 304 -182
361 -368 25 -82 25 -267 0 -348 -73 -238 -268 -387 -505 -387 -310 0 -537 263
-518 599 8 152 61 275 161 375 132 132 325 182 501 129z"/>
</g>
</svg>
