<?xml version="1.0" encoding="utf-8"?>
<!-- Generator: Adobe Illustrator 27.0.0, SVG Export Plug-In . SVG Version: 6.00 Build 0)  -->
<svg version="1.1" id="Layer_1" xmlns="http://www.w3.org/2000/svg" xmlns:xlink="http://www.w3.org/1999/xlink" x="0px" y="0px"
	 viewBox="0 0 512 512" style="enable-background:new 0 0 512 512;" xml:space="preserve">
<style type="text/css">
	.st0{fill:#E82E21;}
</style>
<g id="XMLID_1_">
	<rect id="XMLID_3_" x="3.65" y="231.73" width="508.35" height="2.95"/>
	<rect id="XMLID_4_" x="3.65" y="237.62" width="84.3" height="2.95"/>
	<path id="XMLID_7_" class="st0" d="M90.76,237.62h44.75c14.31,0,21.46,9.12,21.46,19.78c0,12.62-10.38,20.34-21.46,20.34h-30.3
		v17.67H90.76L90.76,237.62L90.76,237.62z M105.21,250.53v14.87h28.2c7.01,0,8.7-4.07,8.7-7.72c0-3.09-1.54-7.01-8.7-7.01h-28.2
		V250.53z"/>
	<path id="XMLID_10_" class="st0" d="M188.25,284.34h-21.18l-3.93,11.08h-15.43l23.15-57.79h15.01l21.74,57.79h-15.71L188.25,284.34
		z M171.27,272.55h13.19l-6.17-19.22L171.27,272.55z"/>
	<path id="XMLID_13_" class="st0" d="M209.99,237.62h27.35c12.91,0,19.36,9.12,19.36,19.78c0,8.56-4.35,14.87-10.1,17.96l10.1,20.06
		h-16.27l-8-17.67h-8v17.67h-14.45V237.62z M224.44,250.53v14.87h9.4c5.61,0,8-4.07,8-7.72c0-3.09-2.24-7.01-8-7.01h-9.4V250.53z"/>
	<path id="XMLID_14_" class="st0" d="M260.07,255.16c0-12.2,9.82-18.8,22.3-18.8c7.29,0,15.29,1.82,19.92,4.49l-2.81,12.34
		c-4.77-2.95-12.06-4.35-17.67-4.35c-4.49,0-7.57,1.68-7.57,4.77c0,9.4,29.6,4.07,29.6,23.57c0,10.38-7.43,19.36-22.72,19.36
		c-6.59,0-14.03-0.84-20.06-3.65l0.56-13.19c6.03,2.95,12.62,4.49,19.92,4.49c6.31,0,8-2.24,8-4.91
		C289.53,270.59,260.07,275.64,260.07,255.16z"/>
	<path id="XMLID_17_" class="st0" d="M339.6,236.36c19.92,0,34.23,10.24,34.23,29.74c0,20.34-15.43,30.3-34.23,30.3
		c-18.94,0-34.37-10.24-34.37-30.3C305.1,247.3,319.12,236.36,339.6,236.36z M339.32,284.34c11.36,0,19.5-5.75,19.5-18.52
		c0-11.5-8.14-17.39-19.5-17.39c-11.22,0-19.36,5.61-19.36,17.81C319.96,278.58,328.1,284.34,339.32,284.34z"/>
	<polygon id="XMLID_18_" class="st0" points="394.87,254.88 391.36,254.88 391.36,295.42 376.92,295.42 376.92,237.62 
		397.12,237.62 435.41,274.1 438.92,274.1 438.92,237.62 453.37,237.62 453.37,295.42 435.97,295.42 	"/>
	<path id="XMLID_19_" class="st0" d="M458.7,255.16c0-12.2,11.5-18.8,27.07-18.8c9.82,0,20.06,1.82,24.55,4.49l-2.81,12.34
		c-4.77-2.95-14.59-4.35-22.3-4.35c-8.28,0-12.2,1.68-12.2,4.77c0,9.96,39,2.24,39,23.57c0,10.38-8.84,19.36-27.49,19.36
		c-8.42,0-18.66-0.84-24.69-3.65l0.56-13.19c6.03,2.95,14.73,4.49,24.55,4.49c9.4,0,12.62-2.24,12.62-4.91
		C497.69,269.89,458.7,277.32,458.7,255.16z"/>
	<polygon id="XMLID_20_" points="7.43,218.69 7.43,228.93 4.07,228.93 4.07,218.69 0,218.69 0,215.74 11.64,215.74 11.64,218.69 	
		"/>
	<polygon id="XMLID_21_" points="24.55,223.88 15.85,223.88 15.85,228.93 12.48,228.93 12.48,215.74 15.85,215.74 15.85,220.79 
		24.55,220.79 24.55,215.74 27.91,215.74 27.91,228.93 24.55,228.93 	"/>
	<polygon id="XMLID_22_" points="29.32,228.93 29.32,215.74 38.72,215.74 38.72,218.69 32.68,218.69 32.68,220.93 37.59,220.93 
		37.59,223.74 32.68,223.74 32.68,225.98 38.72,225.98 38.72,228.93 	"/>
	<polygon id="XMLID_23_" points="47.69,220.51 47.13,220.51 47.13,228.93 43.91,228.93 43.91,215.74 47.69,215.74 55.41,224.02 
		55.97,224.02 55.97,215.74 59.2,215.74 59.2,228.93 55.55,228.93 	"/>
	<polygon id="XMLID_24_" points="60.74,228.93 60.74,215.74 70.14,215.74 70.14,218.69 64.11,218.69 64.11,220.93 69.01,220.93 
		69.01,223.74 64.11,223.74 64.11,225.98 70.14,225.98 70.14,228.93 	"/>
	<polygon id="XMLID_25_" points="70.42,215.74 74.2,215.74 77.01,226.26 77.85,226.26 80.38,215.74 86.69,215.74 89.64,226.26 
		90.34,226.26 92.86,215.74 96.65,215.74 93,228.93 87.11,228.93 84.02,218.41 83.18,218.41 80.38,228.93 74.49,228.93 	"/>
	<path id="XMLID_26_" d="M100.44,219.81c0-2.81,2.24-4.35,5.05-4.35c1.68,0,3.51,0.42,4.49,0.98l-0.56,2.81
		c-1.12-0.7-2.81-0.98-4.07-0.98c-0.98,0-1.68,0.42-1.68,1.12c0,2.1,6.73,0.98,6.73,5.33c0,2.38-1.68,4.49-5.19,4.49
		c-1.54,0-3.23-0.14-4.63-0.84l0.14-3.09c1.4,0.7,2.95,0.98,4.49,0.98c1.4,0,1.82-0.56,1.82-1.12
		C107.17,223.32,100.44,224.44,100.44,219.81z"/>
	<path id="XMLID_27_" d="M121.48,228.79c-1.12,0.42-1.96,0.42-3.51,0.42c-4.07,0-6.87-3.23-6.87-6.87c0-3.79,2.95-6.87,7.15-6.87
		c1.12,0,2.38,0,3.37,0.42l-0.28,2.95c-1.12-0.42-1.96-0.42-2.95-0.42c-2.38,0-3.93,1.4-3.93,3.93c0,2.52,1.68,3.93,3.93,3.93
		c1.54,0,1.96-0.14,2.95-0.42v2.95H121.48z"/>
	<polygon id="XMLID_28_" points="134.94,223.88 126.25,223.88 126.25,228.93 123.02,228.93 123.02,215.74 126.25,215.74 
		126.25,220.79 134.94,220.79 134.94,215.74 138.31,215.74 138.31,228.93 134.94,228.93 	"/>
	<path id="XMLID_31_" d="M147.01,215.46c4.49,0,7.86,2.38,7.86,6.87c0,4.63-3.51,7.01-7.86,7.01c-4.35,0-7.86-2.38-7.86-6.87
		C139.01,217.99,142.24,215.46,147.01,215.46z M146.87,226.54c2.67,0,4.49-1.26,4.49-4.21c0-2.67-1.82-3.93-4.49-3.93
		c-2.52,0-4.49,1.26-4.49,4.07C142.52,225.14,144.34,226.54,146.87,226.54z"/>
	<path id="XMLID_34_" d="M163.28,215.46c4.49,0,7.86,2.38,7.86,6.87c0,4.63-3.51,7.01-7.86,7.01c-4.35,0-7.86-2.38-7.86-6.87
		C155.42,217.99,158.65,215.46,163.28,215.46z M163.14,226.54c2.67,0,4.49-1.26,4.49-4.21c0-2.67-1.82-3.93-4.49-3.93
		c-2.52,0-4.49,1.26-4.49,4.07C158.79,225.14,160.61,226.54,163.14,226.54z"/>
	<polygon id="XMLID_35_" points="171.98,215.74 175.34,215.74 175.34,225.84 185.58,225.84 185.58,228.93 171.98,228.93 	"/>
</g>
</svg>
