<svg xmlns="http://www.w3.org/2000/svg" viewBox="0 0 24 24" width="120" height="60" fill="#0056D2">
  <path d="M0 0h24v24H0V0z" fill="none"/>
  <path d="M17.82 16.94l-2.52-2.52c-.19-.19-.44-.29-.71-.29h-1.05c.62-2.2 2.63-3.82 5.03-3.82.41 0 .83.05 1.22.15V8.15c0-.28-.11-.53-.29-.71L14.17 2.6c-.38-.38-1.02-.38-1.41 0l-8.36 8.36c-.38.38-.38 1.02 0 1.41l2.52 2.52c.19.19.44.29.71.29h1.05c-.62 2.2-2.63 3.82-5.03 3.82-.41 0-.83-.05-1.22-.15v-1.68c0-.28.11-.53.29-.71l3.84-3.84c.19-.19.51-.19.7 0l3.84 3.84c.38.38 1.02.38 1.41 0l8.36-8.36c.38-.38.38-1.02 0-1.41l-2.52-2.52c-.19-.19-.44-.29-.71-.29h-1.05c.62-2.2 2.63-3.82 5.03-3.82.41 0 .83.05 1.22.15v1.68c0 .28-.11.53-.29.71l-3.84 3.84c-.19.19-.51.19-.7 0l-3.84-3.84c-.38-.38-1.02-.38-1.41 0L4.28 9.61c-.38.38-.38 1.02 0 1.41l2.52 2.52c.19.19.44.29.71.29h1.05c-.62 2.2-2.63 3.82-5.03 3.82-.41 0-.83-.05-1.22-.15v-1.68c0-.28.11-.53.29-.71l8.36-8.36c.38-.38.38-1.02 0-1.41L7.11.29c-.19-.19-.44-.29-.71-.29H5.35C5.07 0 4.85.1 4.66.29l-3.84 3.84c-.38.38-.38 1.02 0 1.41l8.36 8.36c.38.38 1.02.38 1.41 0l2.52-2.52c.19-.19.51-.19.7 0l3.84 3.84c.19.19.29.44.29.71v1.68c0 .28-.11.53-.29.71z"/>
</svg>
