<?xml version="1.0" standalone="no"?>
<!DOCTYPE svg PUBLIC "-//W3C//DTD SVG 20010904//EN"
 "http://www.w3.org/TR/2001/REC-SVG-20010904/DTD/svg10.dtd">
<svg version="1.0" xmlns="http://www.w3.org/2000/svg"
 width="900.000000pt" height="900.000000pt" viewBox="0 0 900.000000 900.000000"
 preserveAspectRatio="xMidYMid meet">

<g transform="translate(0.000000,900.000000) scale(0.100000,-0.100000)"
fill="#000000" stroke="none">
<path d="M0 4500 l0 -4500 4500 0 4500 0 0 4500 0 4500 -4500 0 -4500 0 0
-4500z m3537 2608 c11 -13 165 -225 343 -473 487 -676 620 -860 628 -862 4 -2
72 88 152 199 80 111 235 327 345 478 110 152 265 367 345 478 l145 201 713 1
712 0 0 -485 0 -485 -182 -2 -183 -3 -3 -752 -2 -753 185 -2 c102 -2 185 -6
185 -10 0 -5 0 -224 0 -488 l0 -480 -905 0 -905 0 0 490 0 490 195 0 195 0 0
485 c0 267 -2 485 -4 485 -2 0 -75 -97 -163 -216 -476 -650 -779 -1061 -805
-1094 l-25 -32 -133 183 c-74 101 -186 256 -250 344 -65 88 -222 304 -350 480
-128 176 -236 324 -241 330 -5 5 -9 -195 -9 -478 l0 -487 195 0 195 0 0 -490
0 -490 -905 0 -905 0 0 490 0 490 180 0 180 0 0 755 0 755 -180 0 -180 0 0
485 0 485 708 0 709 0 20 -22z m1209 -3933 c19 -8 41 -12 49 -9 15 6 19 -6 29
-78 6 -49 -13 -50 -38 -4 -43 80 -166 84 -166 6 0 -35 21 -53 98 -80 111 -40
153 -124 103 -206 -37 -61 -144 -83 -220 -45 -47 25 -57 37 -64 83 -8 52 8 56
36 11 33 -53 50 -65 100 -70 33 -4 48 0 70 17 53 42 26 91 -71 129 -102 40
-129 75 -119 152 12 87 103 132 193 94z m1709 -9 c44 -19 102 -88 116 -138 17
-63 5 -142 -28 -196 -70 -113 -242 -130 -339 -34 -40 40 -56 80 -62 149 -11
143 99 253 238 236 25 -3 59 -11 75 -17z m-4174 -1 c0 -5 -8 -12 -18 -14 -29
-6 -33 -20 -33 -149 0 -177 19 -212 113 -212 38 0 49 5 71 30 33 39 38 70 34
210 -3 110 -4 114 -26 120 -51 11 -24 25 56 28 83 3 108 -9 58 -28 -23 -8 -24
-14 -30 -127 -9 -151 -12 -171 -36 -210 -30 -50 -90 -76 -167 -71 -67 4 -100
21 -137 72 -18 24 -21 44 -24 159 -3 160 -6 177 -32 177 -11 0 -20 7 -20 15 0
13 15 15 95 13 54 -2 95 -7 96 -13z m533 -109 c141 -180 132 -178 126 -33 l-5
122 -29 5 c-16 3 -31 11 -34 18 -3 9 18 12 82 12 87 0 117 -12 72 -30 -14 -5
-27 -11 -28 -12 -1 -2 -4 -90 -7 -197 -4 -127 -10 -196 -17 -198 -6 -2 -66 65
-134 149 -68 84 -127 157 -132 163 -5 5 -7 -50 -6 -130 l3 -140 29 -5 c16 -3
31 -11 34 -17 3 -10 -19 -13 -87 -13 -92 0 -111 8 -67 28 30 13 36 49 36 218
0 134 -5 154 -42 154 -10 0 -18 7 -18 15 0 12 14 15 63 15 l63 0 98 -124z
m456 114 c0 -6 -11 -15 -25 -20 l-25 -10 0 -175 0 -175 25 -10 c50 -19 26 -30
-65 -30 -91 0 -115 11 -65 30 l25 10 -2 172 c-3 169 -4 173 -25 183 -13 5 -23
15 -23 22 0 10 24 13 90 13 55 0 90 -4 90 -10z m240 -5 c0 -9 -9 -15 -25 -15
-34 0 -33 -23 10 -151 50 -147 44 -138 60 -108 27 51 86 220 83 237 -2 9 -13
18 -26 20 -12 2 -22 10 -22 18 0 11 17 14 75 14 60 0 75 -3 75 -15 0 -8 -6
-15 -13 -15 -25 0 -43 -34 -123 -222 -43 -104 -84 -188 -90 -188 -7 0 -24 30
-38 68 -14 37 -47 126 -74 197 -36 95 -55 133 -70 140 -12 5 -22 15 -22 22 0
10 26 13 100 13 82 0 100 -3 100 -15z m550 -41 c0 -34 -4 -53 -10 -49 -5 3
-10 13 -10 20 0 27 -45 46 -102 43 l-53 -3 0 -70 0 -70 42 -3 c36 -3 44 1 59
22 9 15 20 26 25 26 5 0 9 -31 9 -70 0 -44 -4 -70 -11 -70 -6 0 -13 9 -16 20
-6 23 -36 33 -79 28 -28 -3 -29 -5 -32 -64 -4 -78 10 -94 79 -94 60 0 87 12
99 46 21 55 38 16 24 -55 l-6 -31 -159 0 c-154 0 -199 9 -146 29 31 12 37 42
37 186 0 144 -6 174 -37 186 -52 20 -8 29 138 29 l149 0 0 -56z m363 34 c59
-40 57 -131 -4 -183 -16 -13 -29 -26 -29 -28 0 -19 105 -177 120 -182 41 -13
20 -28 -31 -23 -62 6 -83 26 -136 123 -28 50 -45 71 -61 73 -21 3 -22 0 -22
-67 0 -64 2 -72 25 -87 14 -9 25 -20 25 -25 0 -5 -40 -9 -90 -9 -91 0 -115 11
-65 30 l25 10 0 175 0 175 -25 10 c-14 5 -25 15 -25 21 0 8 39 10 133 7 105
-2 138 -7 160 -20z m627 12 c0 -6 -11 -15 -25 -20 l-25 -10 0 -175 0 -175 25
-10 c50 -19 26 -30 -65 -30 -49 0 -90 4 -90 9 0 5 11 16 25 25 25 16 25 17 25
170 0 85 -3 162 -6 171 -4 9 -18 21 -31 26 -13 5 -21 13 -18 19 8 13 185 13
185 0z m430 -50 c0 -33 -3 -60 -7 -60 -5 0 -15 15 -23 33 -14 30 -18 32 -70
32 l-55 0 -3 -151 c-3 -154 5 -204 33 -204 8 0 15 -4 15 -10 0 -6 -35 -10 -85
-10 -80 0 -109 11 -66 25 26 8 33 57 29 220 l-3 130 -55 0 c-52 0 -56 -2 -70
-32 -13 -28 -33 -41 -31 -20 1 4 1 30 1 57 l0 50 195 0 195 0 0 -60z m260 45
c0 -10 -10 -15 -30 -15 -42 0 -39 -24 9 -101 l39 -61 40 67 c41 69 44 95 11
95 -10 0 -19 7 -19 15 0 12 16 15 85 15 86 0 109 -11 60 -30 -26 -10 -68 -63
-116 -147 -27 -48 -30 -58 -27 -135 3 -78 4 -82 27 -88 14 -3 26 -11 29 -18 3
-9 -23 -12 -103 -12 -80 0 -106 3 -103 12 3 7 15 15 29 18 22 5 24 11 27 78
l3 72 -72 110 c-47 71 -79 110 -90 110 -20 0 -32 14 -22 24 3 3 55 6 115 6 89
0 108 -3 108 -15z m1178 -42 c3 -56 -11 -72 -28 -29 -5 13 -13 27 -19 30 -17
11 -91 18 -116 12 -24 -6 -25 -10 -25 -77 l0 -70 53 3 c43 2 54 7 62 26 17 39
25 24 25 -53 0 -72 -12 -97 -25 -54 -8 23 -42 39 -86 39 l-30 0 3 -82 c3 -75
5 -84 26 -93 41 -18 16 -30 -71 -33 -69 -2 -87 0 -87 11 0 8 11 19 25 25 l25
12 -2 172 c-3 169 -4 173 -25 183 -13 5 -23 15 -23 22 0 9 41 11 158 10 l157
-2 3 -52z m-859 -805 c100 -309 108 -332 129 -358 24 -30 82 -37 110 -13 22
18 23 24 29 268 l6 251 -24 16 c-14 9 -34 17 -44 19 -11 3 -21 12 -23 22 -3
15 7 17 96 17 l99 0 33 -47 c19 -27 93 -121 165 -210 l130 -162 3 176 c1 111
-1 180 -8 188 -6 7 -28 15 -50 19 -26 4 -40 12 -40 21 0 13 22 15 130 15 109
0 130 -2 130 -15 0 -8 -9 -15 -19 -15 -10 0 -28 -8 -40 -17 -21 -17 -22 -28
-28 -310 l-6 -293 -22 0 c-16 0 -53 38 -141 148 -65 81 -152 188 -194 239
l-75 92 -3 -187 c-1 -103 0 -197 3 -209 4 -17 17 -26 50 -34 34 -8 45 -16 45
-30 0 -19 -11 -19 -272 -17 -243 3 -273 5 -276 19 -2 12 7 18 33 23 45 9 50
22 35 86 l-12 50 -118 0 -117 0 -13 -46 c-16 -57 -7 -75 44 -88 25 -7 36 -15
34 -25 -3 -13 -25 -16 -136 -19 -127 -2 -132 -2 -132 18 0 11 7 20 15 20 9 0
29 7 44 15 32 16 45 44 119 250 28 77 62 170 76 208 14 37 26 76 26 86 0 12
19 28 58 48 31 17 60 31 64 32 3 0 43 -113 87 -251z m-2294 202 c63 -32 66
-32 85 -15 20 18 20 17 20 -83 0 -111 -12 -131 -42 -69 -41 86 -119 141 -200
139 -57 -1 -95 -20 -136 -67 -89 -100 -78 -321 20 -412 84 -79 233 -68 304 21
23 29 30 32 46 23 28 -18 22 -34 -35 -91 -62 -63 -121 -86 -217 -86 -141 0
-240 61 -296 182 -38 84 -40 202 -4 292 71 183 275 257 455 166z m1616 24 c30
-9 69 -25 88 -37 31 -19 35 -19 46 -4 7 9 15 17 19 17 3 0 6 -45 6 -100 0 -78
-3 -100 -14 -100 -7 0 -20 15 -27 32 -17 42 -74 105 -113 125 -39 20 -123 20
-161 0 -85 -44 -120 -121 -120 -262 0 -89 3 -106 28 -157 32 -64 62 -93 117
-109 53 -16 107 -3 143 32 27 27 29 34 25 84 -5 64 -6 65 -50 74 -19 4 -33 13
-33 21 0 12 24 16 133 18 114 2 132 0 132 -13 0 -9 -11 -20 -24 -24 -31 -12
-36 -29 -36 -117 l0 -75 -67 -32 c-64 -30 -75 -32 -178 -32 -127 0 -173 16
-239 80 -62 61 -90 133 -94 240 -3 74 0 100 19 149 34 92 114 168 209 197 43
13 134 10 191 -7z m-2962 -237 c52 -127 97 -235 100 -239 4 -4 55 100 115 232
l109 240 103 0 c57 0 104 -2 104 -4 0 -19 -16 -36 -34 -36 -44 0 -46 -11 -46
-273 0 -143 4 -256 10 -267 5 -10 23 -23 40 -28 21 -8 28 -16 24 -26 -9 -22
-279 -24 -287 -2 -7 18 1 26 25 26 10 0 27 9 38 20 19 19 20 33 20 217 0 108
-3 194 -6 190 -5 -5 -214 -458 -214 -464 0 -2 -15 -3 -33 -3 l-33 0 -99 242
-100 242 -3 -204 c-1 -113 0 -210 2 -216 3 -7 18 -15 35 -19 22 -5 31 -12 31
-26 0 -19 -7 -19 -112 -17 -120 3 -146 16 -85 42 19 7 38 19 41 25 12 18 26
491 15 517 -5 16 -19 27 -39 30 -16 4 -30 13 -30 20 0 11 23 14 108 14 l107 0
94 -233z m861 219 c0 -8 -14 -17 -31 -21 -19 -4 -34 -16 -40 -32 -12 -32 -12
-475 1 -508 6 -17 20 -27 40 -32 21 -4 30 -11 28 -22 -3 -14 -22 -16 -138 -16
-107 0 -135 3 -135 14 0 7 16 21 35 30 l35 16 3 253 c1 152 -2 260 -7 271 -6
10 -24 21 -41 24 -18 4 -30 13 -30 22 0 13 21 15 140 15 114 0 140 -3 140 -14z
m930 0 c0 -8 -13 -17 -29 -21 -47 -10 -55 -29 -59 -135 l-4 -97 76 -6 c42 -4
110 -4 151 0 l75 6 0 94 c0 52 -4 102 -10 112 -5 10 -25 22 -45 25 -21 4 -35
13 -35 21 0 13 25 15 145 15 121 0 145 -2 145 -15 0 -8 -14 -18 -32 -23 -22
-5 -35 -16 -39 -33 -11 -37 -10 -475 0 -502 7 -17 21 -28 41 -32 22 -5 30 -12
28 -23 -3 -15 -21 -17 -143 -17 -118 0 -140 2 -140 15 0 8 14 20 30 25 55 18
55 19 55 139 l0 113 -72 6 c-39 3 -107 3 -151 0 l-79 -6 4 -108 c5 -117 12
-134 59 -144 20 -5 29 -13 29 -26 0 -18 -9 -19 -140 -19 -130 0 -140 1 -140
19 0 12 11 21 33 27 l32 10 5 209 c3 116 3 237 0 270 -5 56 -7 61 -37 74 -18
8 -33 21 -33 28 0 10 31 13 140 13 114 0 140 -3 140 -14z m730 1 c0 -7 -15
-20 -32 -28 l-33 -14 0 -265 0 -265 32 -15 c18 -8 33 -23 33 -32 0 -16 -13
-18 -135 -18 -126 0 -135 1 -135 19 0 12 11 23 30 30 48 16 52 42 48 297 -3
244 -6 259 -51 266 -12 2 -23 11 -25 21 -3 15 8 17 132 17 106 0 136 -3 136
-13z"/>
<path d="M6294 3115 c-73 -73 -73 -228 1 -302 60 -60 133 -38 171 52 18 44 18
146 0 190 -35 83 -119 112 -172 60z"/>
<path d="M4260 3061 l0 -81 38 0 c50 0 82 32 82 82 0 44 -25 68 -79 75 l-41 6
0 -82z"/>
<path d="M5851 2286 c-22 -65 -41 -122 -41 -127 0 -5 39 -9 86 -9 65 0 85 3
81 13 -2 6 -19 57 -37 112 -17 55 -35 106 -40 114 -4 8 -22 -29 -49 -103z"/>
</g>
</svg>
