<?xml version="1.0" standalone="no"?>
<!DOCTYPE svg PUBLIC "-//W3C//DTD SVG 20010904//EN"
 "http://www.w3.org/TR/2001/REC-SVG-20010904/DTD/svg10.dtd">
<svg version="1.0" xmlns="http://www.w3.org/2000/svg"
 width="1280.000000pt" height="257.000000pt" viewBox="0 0 1280.000000 257.000000"
 preserveAspectRatio="xMidYMid meet">

<g transform="translate(0.000000,257.000000) scale(0.100000,-0.100000)"
fill="#000000" stroke="none">
<path d="M8546 2475 c-120 -46 -177 -158 -142 -279 22 -76 79 -124 194 -166
115 -41 159 -67 184 -108 40 -66 5 -151 -71 -172 -121 -33 -242 27 -286 143
-19 49 -22 52 -44 38 -11 -7 -12 -25 -7 -82 l7 -74 51 -34 c136 -94 305 -94
410 -1 55 48 81 106 80 181 0 111 -66 187 -204 233 -153 52 -198 89 -198 161
0 126 203 143 289 25 16 -23 35 -57 41 -76 12 -35 17 -39 36 -26 7 5 7 39 -2
117 -7 61 -13 112 -13 114 -1 2 -10 -4 -21 -14 -20 -18 -22 -18 -68 5 -60 29
-178 37 -236 15z"/>
<path d="M11650 2479 c-108 -15 -191 -64 -251 -147 -116 -163 -103 -401 31
-546 83 -89 235 -138 361 -116 123 22 200 70 260 163 60 93 82 223 58 339 -45
211 -236 339 -459 307z m143 -83 c45 -18 102 -88 129 -155 18 -46 22 -77 22
-166 0 -128 -20 -194 -80 -264 -45 -52 -84 -73 -140 -73 -87 0 -171 80 -209
199 -25 78 -18 260 13 328 56 123 161 175 265 131z"/>
<path d="M10170 2455 c0 -20 5 -25 26 -25 14 0 33 -4 43 -10 10 -5 75 -96 145
-203 l126 -193 0 -126 c0 -142 -5 -152 -78 -164 -32 -5 -42 -11 -42 -25 0 -18
11 -19 195 -19 184 0 195 1 195 19 0 15 -10 20 -44 25 -24 4 -50 14 -58 23 -9
11 -14 58 -16 154 l-4 138 89 148 c105 176 155 233 202 233 28 0 32 3 29 23
-3 22 -5 22 -153 22 -148 0 -150 0 -153 -22 -3 -20 1 -23 31 -23 41 0 62 -21
53 -52 -5 -23 -121 -236 -136 -251 -9 -11 -149 214 -156 253 -7 35 16 50 76
50 37 0 41 2 38 23 -3 22 -4 22 -205 25 l-203 2 0 -25z"/>
<path d="M3880 2450 c0 -15 7 -20 25 -20 14 0 34 -9 45 -20 19 -19 20 -33 20
-232 0 -116 5 -240 11 -275 17 -95 57 -149 143 -193 63 -32 75 -35 160 -35
108 0 160 14 218 58 98 75 115 132 129 422 6 122 16 231 23 245 8 18 20 26 44
28 24 2 32 8 32 23 0 18 -8 19 -151 19 -137 0 -150 -2 -147 -17 2 -12 16 -20
41 -24 65 -10 72 -24 76 -158 1 -65 -2 -172 -8 -237 -16 -182 -66 -261 -172
-279 -106 -18 -182 24 -219 121 -18 49 -20 77 -20 284 0 217 1 231 20 250 11
11 33 20 50 20 23 0 30 4 30 20 0 19 -7 20 -175 20 -168 0 -175 -1 -175 -20z"/>
<path d="M4792 2454 c2 -9 21 -22 42 -29 22 -8 48 -23 59 -33 19 -19 19 -29
10 -322 -8 -300 -9 -302 -32 -321 -13 -10 -36 -19 -52 -19 -22 0 -29 -5 -29
-20 0 -19 7 -20 160 -20 151 0 160 1 160 19 0 15 -10 21 -40 26 -22 4 -50 15
-62 25 -21 17 -22 24 -26 264 -3 153 -1 246 5 246 5 0 117 -133 249 -295 177
-219 244 -295 260 -295 20 0 21 5 27 197 4 108 7 260 7 338 0 162 9 202 48
211 46 10 52 13 52 29 0 13 -22 15 -155 15 -148 0 -155 -1 -155 -20 0 -17 7
-20 39 -20 23 0 48 -8 62 -19 23 -19 24 -24 27 -203 2 -100 2 -201 0 -223 l-3
-40 -180 225 c-99 124 -191 242 -205 263 l-25 37 -123 0 c-108 0 -123 -2 -120
-16z"/>
<path d="M5710 2450 c0 -14 7 -20 23 -20 67 0 76 -40 76 -365 1 -285 -3 -310
-59 -326 -28 -9 -40 -18 -40 -31 0 -17 11 -18 165 -18 155 0 165 1 165 19 0
14 -10 21 -35 25 -19 4 -39 15 -45 26 -6 11 -10 139 -10 329 0 309 0 310 22
325 12 9 33 16 45 16 16 0 23 6 23 20 0 19 -7 20 -165 20 -158 0 -165 -1 -165
-20z"/>
<path d="M6110 2455 c0 -8 15 -21 33 -28 17 -8 39 -23 49 -33 13 -15 109 -264
257 -669 15 -39 24 -50 40 -50 19 0 40 43 166 342 78 188 153 356 165 373 13
18 34 33 51 37 20 4 29 12 29 24 0 18 -10 19 -135 19 -128 0 -135 -1 -135 -20
0 -15 7 -20 28 -20 39 0 72 -26 72 -57 0 -22 -144 -412 -174 -471 -11 -21 -21
2 -94 220 -45 134 -82 250 -82 258 0 29 19 43 62 49 30 4 44 11 46 24 3 16
-11 17 -187 17 -162 0 -191 -2 -191 -15z"/>
<path d="M6940 2450 c0 -15 7 -20 25 -20 14 0 34 -9 45 -20 19 -19 20 -33 20
-323 0 -333 -1 -339 -60 -352 -21 -5 -30 -13 -30 -26 0 -18 11 -19 295 -19
l295 0 4 23 c3 12 7 57 10 100 5 69 4 77 -12 77 -12 0 -23 -14 -32 -42 -23
-65 -55 -82 -161 -87 -165 -6 -169 -2 -169 170 l0 129 73 0 c90 0 119 -14 131
-63 5 -20 15 -37 23 -37 10 0 13 29 13 130 0 106 -3 130 -14 130 -8 0 -20 -16
-26 -36 -15 -44 -39 -54 -131 -54 l-69 0 0 142 0 141 104 -6 c62 -3 116 -12
133 -21 28 -14 53 -52 53 -81 0 -8 9 -15 20 -15 19 0 20 7 20 90 l0 90 -280 0
c-273 0 -280 0 -280 -20z"/>
<path d="M7630 2450 c0 -15 7 -20 25 -20 14 0 34 -9 45 -20 19 -19 20 -33 20
-329 0 -339 1 -333 -60 -346 -21 -5 -30 -13 -30 -26 0 -18 9 -19 165 -19 155
0 165 1 165 19 0 13 -10 21 -34 25 -55 11 -61 25 -64 173 l-4 133 32 0 c17 0
40 -5 51 -10 11 -6 46 -64 78 -129 68 -135 97 -174 154 -202 51 -27 187 -39
187 -17 0 7 -16 20 -35 27 -19 6 -45 26 -57 44 -30 41 -178 298 -178 308 0 4
9 11 20 14 33 10 80 55 101 96 61 120 13 249 -104 284 -38 11 -103 15 -264 15
-206 0 -213 -1 -213 -20z m388 -67 c40 -19 61 -48 73 -103 23 -103 -82 -197
-196 -176 l-35 7 0 144 c0 105 3 145 13 149 20 9 109 -4 145 -21z"/>
<path d="M8980 2451 c0 -14 10 -21 35 -25 26 -5 39 -14 45 -32 6 -14 10 -158
10 -323 0 -328 1 -320 -62 -336 -18 -5 -28 -14 -28 -26 0 -18 10 -19 160 -19
151 0 160 1 160 19 0 13 -9 21 -29 26 -55 12 -56 15 -59 319 -2 155 -1 295 3
313 7 40 29 63 61 63 17 0 24 5 24 20 0 19 -7 20 -160 20 -150 0 -160 -1 -160
-19z"/>
<path d="M9386 2409 c-3 -34 -6 -82 -6 -105 0 -37 3 -44 20 -44 11 0 20 7 20
15 0 33 32 93 56 104 14 6 65 11 114 11 l90 0 0 -282 c-1 -351 -4 -370 -72
-385 -16 -3 -28 -12 -28 -19 0 -11 32 -14 165 -14 130 0 165 3 165 13 0 8 -17
18 -37 23 -58 14 -62 34 -62 372 l-1 292 91 0 c121 0 140 -10 160 -87 8 -32
16 -43 30 -43 21 0 24 25 12 143 l-6 67 -352 0 -352 0 -7 -61z"/>
<path d="M12160 2452 c0 -13 12 -22 40 -31 30 -9 42 -18 47 -39 5 -15 7 -159
7 -321 -1 -293 -2 -295 -24 -313 -12 -10 -33 -18 -46 -18 -19 0 -24 -5 -24
-25 l0 -25 160 0 160 0 0 25 c0 20 -5 25 -25 25 -14 0 -34 9 -45 20 -18 18
-20 33 -20 160 l0 140 80 0 c95 0 126 -12 142 -57 8 -21 19 -33 30 -33 16 0
18 11 18 125 0 115 -1 125 -19 125 -12 0 -21 -11 -27 -32 -13 -45 -45 -58
-141 -58 l-83 0 0 141 0 141 123 -4 c140 -4 159 -12 183 -75 12 -31 22 -43 37
-43 17 0 19 5 13 31 -3 17 -6 60 -6 95 l0 64 -290 0 c-275 0 -290 -1 -290 -18z"/>
<path d="M10986 1337 c-16 -12 -66 -36 -110 -54 -60 -24 -81 -37 -79 -50 1
-14 -285 -814 -334 -933 -25 -62 -70 -98 -135 -111 -55 -11 -58 -13 -58 -40
l0 -29 245 0 245 0 0 29 c0 27 -3 30 -49 36 -26 3 -62 15 -80 26 -27 16 -31
24 -31 61 0 23 10 72 22 110 l22 68 213 0 212 0 21 -72 c35 -116 36 -133 8
-161 -16 -16 -41 -26 -76 -31 -49 -6 -52 -8 -52 -36 l0 -30 505 0 505 0 0 30
c0 26 -4 30 -37 35 -68 10 -116 30 -135 55 -17 24 -18 48 -16 396 l3 372 320
-396 c461 -570 411 -514 448 -510 l32 3 3 160 c1 88 6 327 10 530 10 447 8
437 117 447 26 3 30 7 30 33 l0 30 -232 3 -233 2 0 -34 0 -34 70 -4 c56 -3 75
-8 93 -26 22 -22 22 -25 25 -360 3 -335 3 -337 -17 -317 -42 42 -489 606 -546
688 l-60 86 -177 0 -178 1 0 -35 c0 -31 3 -35 25 -35 33 0 82 -22 118 -52 l29
-23 -10 -446 c-11 -479 -15 -509 -63 -524 -45 -15 -126 -9 -161 12 -64 37 -52
6 -345 910 l-78 241 -29 -21z m-31 -520 c43 -125 76 -230 73 -232 -3 -3 -79
-4 -170 -3 l-165 3 86 242 c47 133 89 237 92 230 4 -7 42 -114 84 -240z"/>
<path d="M6569 1329 c-185 -27 -331 -130 -416 -295 -62 -119 -77 -186 -77
-339 0 -116 3 -139 28 -210 51 -148 135 -253 260 -324 154 -88 394 -94 564
-14 60 28 195 153 222 207 14 27 13 29 -14 53 -15 13 -32 23 -36 21 -4 -2 -26
-25 -47 -53 -113 -143 -306 -185 -479 -103 -172 80 -275 342 -230 586 28 156
97 262 208 323 59 32 69 34 158 34 80 0 103 -4 145 -24 86 -42 210 -184 230
-264 7 -27 20 -32 49 -21 18 7 21 84 9 256 l-6 97 -34 -29 c-18 -17 -36 -30
-40 -30 -3 0 -30 16 -59 35 -74 49 -137 75 -224 91 -83 15 -128 16 -211 3z"/>
<path d="M9600 1325 c-83 -19 -192 -73 -252 -125 -61 -53 -129 -157 -163 -250
-37 -101 -47 -292 -20 -403 71 -301 304 -469 630 -454 126 6 258 43 355 101
l55 32 5 145 c3 87 10 153 18 166 15 26 42 43 71 43 17 0 21 6 21 30 l0 30
-240 0 -240 0 0 -29 c0 -27 3 -30 50 -36 28 -4 59 -14 71 -23 35 -29 52 -157
28 -219 -14 -38 -56 -80 -104 -106 -63 -34 -182 -31 -257 6 -152 75 -238 274
-225 522 9 162 48 273 127 359 103 112 273 141 417 71 67 -33 148 -127 189
-220 23 -51 34 -65 52 -65 l22 0 0 187 0 187 -33 -32 c-18 -18 -36 -32 -39
-32 -4 0 -33 15 -65 34 -136 81 -329 114 -473 81z"/>
<path d="M3930 1275 c0 -34 1 -35 38 -35 55 0 74 -18 81 -76 7 -56 -4 -558
-17 -778 -9 -143 -10 -151 -35 -172 -14 -12 -44 -25 -66 -29 -37 -6 -41 -10
-41 -36 l0 -29 205 0 205 0 0 29 c0 25 -5 30 -32 36 -59 11 -90 28 -99 52 -10
28 -12 502 -2 671 l6 113 59 -143 c32 -79 118 -286 190 -461 l131 -318 51 3
51 3 207 455 208 455 0 -373 c0 -457 4 -440 -107 -457 -39 -6 -43 -9 -43 -36
l0 -29 260 0 260 0 0 29 c0 23 -5 30 -27 35 -58 14 -82 29 -95 59 -10 25 -13
130 -13 490 l0 459 22 18 c12 10 43 21 68 24 43 7 45 8 45 42 l0 34 -181 -2
-181 -3 -202 -446 c-110 -246 -204 -445 -207 -443 -3 2 -88 204 -188 449
l-183 445 -184 0 -184 0 0 -35z"/>
<path d="M5560 1276 c0 -32 2 -34 41 -39 51 -7 78 -31 89 -83 5 -21 10 -227
10 -457 0 -332 -3 -424 -14 -451 -13 -32 -38 -47 -98 -60 -23 -5 -28 -12 -28
-36 l0 -30 245 0 245 0 0 30 c0 27 -4 30 -42 36 -65 11 -85 38 -93 125 -9 101
-2 860 9 882 11 24 58 47 96 47 28 0 30 3 30 35 l0 35 -245 0 -245 0 0 -34z"/>
<path d="M7260 1275 c0 -32 2 -35 30 -35 52 0 88 -25 97 -68 4 -20 8 -235 8
-477 0 -404 -1 -443 -18 -468 -9 -15 -27 -29 -40 -31 -78 -16 -77 -15 -77 -46
l0 -30 255 0 255 0 0 30 c0 26 -4 30 -37 35 -119 20 -123 30 -123 288 l0 197
278 -2 277 -3 0 -195 c0 -258 -3 -264 -127 -285 -34 -5 -38 -9 -38 -35 l0 -30
260 0 260 0 0 30 c0 27 -4 30 -41 36 -23 4 -53 17 -68 30 l-26 22 0 476 c0
466 0 476 20 496 12 11 41 24 65 28 41 7 45 10 45 37 l0 30 -257 3 -258 2 0
-35 c0 -33 2 -35 35 -35 53 0 103 -25 116 -57 6 -16 12 -104 12 -203 l2 -175
-135 -5 c-74 -3 -199 -3 -277 -1 l-143 3 0 167 c0 235 8 255 109 270 43 6 46
8 49 39 l3 32 -255 0 -256 0 0 -35z"/>
<path d="M8620 1276 c0 -31 2 -34 41 -40 66 -11 86 -39 94 -137 11 -143 2
-841 -12 -865 -12 -21 -43 -37 -95 -48 -23 -5 -28 -12 -28 -36 l0 -30 245 0
245 0 0 30 c0 26 -4 30 -37 36 -55 9 -81 29 -92 71 -16 56 -14 877 2 923 13
39 46 60 95 60 30 0 32 2 32 35 l0 35 -245 0 -245 0 0 -34z"/>
</g>
</svg>
