<svg xmlns="http://www.w3.org/2000/svg" viewBox="0 0 640 640" width="120" height="120" fill="#ffcb05">
  <path d="M433.1 196.3v10.1h-46.3c-18 0-31.5 14.7-31.5 32.7v294.6h-59.1v-84.2c0-18.1-14.8-32.7-32.7-32.7h-52.7c-18 0-32.7-14.7-32.7-32.7v-29.8c0-18.1 14.7-32.7 32.7-32.7h52.7c18 0 32.7-14.7 32.7-32.7V221.4c0-18 14.7-32.7 32.7-32.7H422v-38.9c0-18 14.7-32.7 32.7-32.7h14.8z"/>
  <path d="M196.3 433.1h-10.1v46.3c0 18 14.7 31.5 32.7 31.5h294.6v59.1h-84.2c-18 0-32.7 14.8-32.7 32.7v52.7c0 18 14.7 32.7 32.7 32.7h29.8c18 0 32.7 14.7 32.7 32.7v52.7c0 18-14.7 32.7-32.7 32.7h-38.9c-18 0-32.7 14.7-32.7 32.7v14.8c0 18-14.7 32.7-32.7 32.7h-14.8z"/>
  <path d="M417.9 417.9c-18 18-47.2 18-65.2 0l-65.2-65.2c-18-18-18-47.2 0-65.2l65.2-65.2c18-18 47.2-18 65.2 0l65.2 65.2c18 18 18 47.2 0 65.2z"/>
</svg>


